<svg id="ibb-white-logo" xmlns="http://www.w3.org/2000/svg" width="61.77" height="61.908" viewBox="0 0 61.77 61.908">
  <path id="Path_728" data-name="Path 728" d="M16.405,40.877l-.073.8a3.379,3.379,0,0,0-.463-.145h-.427a1.054,1.054,0,0,0-.5.1.309.309,0,0,0-.173.273.3.3,0,0,0,.091.218.636.636,0,0,0,.273.154l.173.055a3.688,3.688,0,0,1,.908.382.908.908,0,0,1,.3.363,1.135,1.135,0,0,1,.1.481,1.172,1.172,0,0,1-.445.954,1.944,1.944,0,0,1-1.235.345,4.3,4.3,0,0,1-.59,0,2.375,2.375,0,0,1-.59-.127l.091-.908a3.462,3.462,0,0,0,.536.191h.491a.845.845,0,0,0,.481-.118.354.354,0,0,0,.182-.309c0-.164-.191-.309-.572-.445l-.209-.073a2.08,2.08,0,0,1-.8-.463.972.972,0,0,1-.236-.681,1.081,1.081,0,0,1,.418-.908,1.989,1.989,0,0,1,1.208-.318,3.633,3.633,0,0,1,.554,0h.254a1.163,1.163,0,0,1,.254.064m2.662.736h.972V44.62h1.036V41.613h.972v-.736h-2.97Zm7.549,1.553h-1l.509-1.463Zm-2.58,1.572h1.026l.291-.827h1.508l.282.827h1.108L26.77,40.877H25.517Zm6.631,0h.908V42.449a2.117,2.117,0,0,0,0-.263,2.362,2.362,0,0,0,0-.336,2.308,2.308,0,0,0,0-.309c.055.164.091.309.136.427a2.725,2.725,0,0,0,.145.363l1.181,2.425h1.208V40.877h-.908v2.216a4.28,4.28,0,0,0,0,.436,1.459,1.459,0,0,0,.073.536l-.091-.282-.082-.236q-.082-.218-.136-.327l-1.135-2.344h-1.3Zm7.994-1.635a.745.745,0,0,1,.445.109.409.409,0,0,1,.154.336.418.418,0,0,1-.164.354.908.908,0,0,1-.481.118H38.2v-.908Zm-.091-1.562a.908.908,0,0,1,.454.1.418.418,0,0,1,0,.654.827.827,0,0,1-.5.118h-.318v-.908Zm-1.39,3.2h1.526a2.226,2.226,0,0,0,1.208-.109,1.011,1.011,0,0,0,.173-1.426,1.063,1.063,0,0,0-.609-.318,1.008,1.008,0,0,0,.536-.318.845.845,0,0,0,.191-.563.908.908,0,0,0-.363-.763,1.871,1.871,0,0,0-1.063-.245h-1.6Zm5.914-1.635a1.762,1.762,0,0,0,.418,1.29,2.026,2.026,0,0,0,2.5,0,1.817,1.817,0,0,0,.418-1.3v-2.1H45.419v2.271a1.181,1.181,0,0,1-.173.709.581.581,0,0,1-.509.245.536.536,0,0,1-.472-.227,1.363,1.363,0,0,1-.145-.727V40.877H43.094Zm6.268,1.635h2.607v-.654H50.4V40.877H49.362ZM9.829,40.487H10.9v-.518H9.829Zm0,4.251H10.9V40.877H9.829Zm-7.358,7.04a1.244,1.244,0,0,1,.754.191.681.681,0,0,1,.254.563.69.69,0,0,1-.282.581,1.344,1.344,0,0,1-.808.2H1.708V51.778Zm-.154-2.616a1.353,1.353,0,0,1,.763.173.6.6,0,0,1,.254.527.654.654,0,0,1-.273.572,1.472,1.472,0,0,1-.827.182H1.708V49.162ZM0,54.5H2.543a3.715,3.715,0,0,0,2-.409A1.544,1.544,0,0,0,5.2,52.732a1.463,1.463,0,0,0-.363-1.026,1.717,1.717,0,0,0-1.026-.527,1.817,1.817,0,0,0,.908-.545,1.408,1.408,0,0,0,.318-.908,1.453,1.453,0,0,0-.6-1.272,3.1,3.1,0,0,0-1.817-.427H0Zm15.052-2.434V54.5H16.8V52.051l2.371-4.088H17.259l-1.308,2.725-1.3-2.725H12.717Zm4.814-.3a2.952,2.952,0,0,0,.709,2.153,2.725,2.725,0,0,0,2.08.727,2.789,2.789,0,0,0,2.1-.718,2.989,2.989,0,0,0,.681-2.153V48H23.791v3.779a2.044,2.044,0,0,1-.291,1.181.981.981,0,0,1-.845.4.908.908,0,0,1-.79-.372,2.2,2.2,0,0,1-.254-1.208V48H19.866Zm3.079-4.388h1.662v-.908H22.946Zm-2.235,0h1.653v-.908H20.711Zm-14.28,4.4a2.952,2.952,0,0,0,.709,2.153,2.725,2.725,0,0,0,2.08.727,2.789,2.789,0,0,0,2.1-.718,2.989,2.989,0,0,0,.69-2.162V48H10.356v3.779a2.044,2.044,0,0,1-.291,1.181.981.981,0,0,1-.845.4.908.908,0,0,1-.79-.372,2.2,2.2,0,0,1-.254-1.208V48H6.431Zm3.079-4.388h1.653v-.908H9.511Zm-2.244.027H8.929v-.908H7.267ZM27.061,54.5H28.8v-3l2.08,3h2.171L30.4,50.97l2.4-3.007H30.831L28.8,50.87V48H27.061Zm12.6,0h4.651V53.277H41.4v-1.5h2.643V50.543H41.4V49.226h2.8V48H39.66Zm6.141,0h1.735V51.778h2.035V54.5h1.744v-6.54H49.571v2.5H47.536V48H45.8Zm7.149-7.122h1.744v-.908H52.95Zm0,7.122h1.744v-6.54H52.95Zm5.514-5.387a1.917,1.917,0,0,1,1,.2.745.745,0,0,1,.309.654.709.709,0,0,1-.282.618,1.435,1.435,0,0,1-.845.2h-.618V49.153ZM56.32,54.5h1.7V51.987h.254a1.308,1.308,0,0,1,.745.164,1.108,1.108,0,0,1,.382.6l.554,1.753H61.77l-.781-2.171a1.6,1.6,0,0,0-.827-1.072,1.69,1.69,0,0,0,.963-.554,1.608,1.608,0,0,0,.327-1.036,1.444,1.444,0,0,0-.59-1.254A3.634,3.634,0,0,0,58.936,48H56.32Zm-18.077-2.88a1.662,1.662,0,0,0-.5-.609,5.723,5.723,0,0,0-1.49-.636l-.291-.091a1.244,1.244,0,0,1-.454-.263.491.491,0,0,1-.154-.354.518.518,0,0,1,.3-.463,1.726,1.726,0,0,1,.827-.173,2.208,2.208,0,0,1,.345,0l.363.064a5.887,5.887,0,0,1,.772.254L38.089,48l-.427-.1-.418-.009a7.421,7.421,0,0,0-.908-.064,3.306,3.306,0,0,0-2.017.536,1.817,1.817,0,0,0-.709,1.517,1.6,1.6,0,0,0,.409,1.135,3.252,3.252,0,0,0,1.326.781l.354.118c.636.227.908.472.908.745a.6.6,0,0,1-.3.527,1.5,1.5,0,0,1-.808.191h-.409l-.418-.082a4.4,4.4,0,0,1-.908-.318l-.145,1.463a7.376,7.376,0,0,0,.99.209l.545.055-.064.736h1.653l.082-.908a2.48,2.48,0,0,0,.836-.409,2,2,0,0,0,.718-1.653,1.89,1.89,0,0,0-.164-.808M11.337,60.072a.763.763,0,0,1,.454.109.409.409,0,0,1,.154.336.418.418,0,0,1-.136.345.836.836,0,0,1-.491.118H10.9v-.908ZM11.255,58.5a.8.8,0,0,1,.454.109.354.354,0,0,1,.145.318.363.363,0,0,1-.154.336.908.908,0,0,1-.5.118h-.3v-.908Zm-1.39,3.207h1.517a2.244,2.244,0,0,0,1.217-.263,1.011,1.011,0,0,0,.173-1.426,1.008,1.008,0,0,0-.618-.318,1.008,1.008,0,0,0,.545-.318.963.963,0,0,0-.173-1.326,1.817,1.817,0,0,0-1.063-.254h-1.6Zm4.96,0H17.6v-.754H15.87v-.908H17.45v-.727H15.87v-.781h1.671V57.8H14.816Zm4.787,0h2.616v-.772H20.657V57.8H19.612Zm4.324,0h2.78v-.754H24.981v-.908h1.581v-.727H24.981v-.781h1.671V57.8H23.927Zm6.123-3.152a1.208,1.208,0,0,1,.908.309,1.181,1.181,0,0,1,.309.908,1.235,1.235,0,0,1-.3.908,1.108,1.108,0,0,1-.845.309h-.454V58.555Zm-1.444,3.152H29.85a5.107,5.107,0,0,0,.545,0h.427a1.871,1.871,0,0,0,.59-.2,1.817,1.817,0,0,0,.69-.69,2.117,2.117,0,0,0,.227-1.026,2.071,2.071,0,0,0-.218-.972,1.653,1.653,0,0,0-1.235-.908,4.95,4.95,0,0,0-.908-.064H28.614ZM37.7,60.253v1.453h1.045V60.244L40.16,57.8h-1.1l-.781,1.653L37.5,57.8H36.336Zm3.915,1.453h2.725v-.754H42.694v-.908h1.544v-.727H42.694v-.781h1.635V57.8H41.6Zm7.013-3.933h-.263a3.633,3.633,0,0,0-.554,0,1.989,1.989,0,0,0-1.208.318,1.063,1.063,0,0,0-.418.908.981.981,0,0,0,.236.69,2.08,2.08,0,0,0,.8.463l.209.073c.382.136.572.282.572.445a.354.354,0,0,1-.182.309.845.845,0,0,1-.481.118h-.245l-.245-.045a3.461,3.461,0,0,1-.536-.191l-.091.908a4.925,4.925,0,0,0,.59.127,4.3,4.3,0,0,0,.59,0,1.889,1.889,0,0,0,1.235-.345,1.172,1.172,0,0,0,.418-1.081,1.136,1.136,0,0,0-.1-.481.908.908,0,0,0-.3-.363,3.525,3.525,0,0,0-.908-.382l-.173-.054a.745.745,0,0,1-.273-.154.3.3,0,0,1,.082-.491.954.954,0,0,1,.5-.1h.472a3.079,3.079,0,0,1,.463.154l.082-.808-.254-.064m-14.67-.273h1.036v-.527H33.974Zm0,4.251h1.036V57.8H33.974Zm16.9-4.251h1.045v-.527H50.87Zm0,4.251h1.045V57.8H50.87ZM23.945,23.981v-1h-1v1h-1v-1H20.938v1h-.954v-1h-1v1A11.954,11.954,0,0,0,30.34,35.927V30.885a6.949,6.949,0,0,1-6.359-6.931m17.913-1h1v1A11.954,11.954,0,0,1,31.457,35.927V30.885a6.949,6.949,0,0,0,6.359-6.931v-.972h1v1h1.008v-1h1.054v1h1Zm-16.805-4.6H18.958a3.134,3.134,0,0,1,6.1,0m11.691,0a3.134,3.134,0,0,1,6.1,0Zm-11.691,3.8H17.832a3.715,3.715,0,0,1,7.267,0m15.306-2.834a3.733,3.733,0,0,1,3.634,2.834H36.772a3.715,3.715,0,0,1,3.634-2.834m-3.634,4.733h0V15.07l.827-.827v-.836h-.827v-3.37l-.836-5.005L35.1,10.038v3.37H33.4v-3.37l.836-.827V8.375H33.4V5.005L32.566,0,31.73,5.005v3.37H30.068V5.005L29.232,0,28.4,5.005v3.37H27.56v.836l.836.827v3.37H26.725v-3.37l-.836-5.005-.827,5.005v3.37h-.836v.836l.836.827v8.911a5.841,5.841,0,0,0,11.673.073m-1.081.845H32.493l1.581-2.725ZM33.4,15.07l.836-.827.836.827v4.824A5.723,5.723,0,0,0,33.4,18.7Zm-.908,4.351,1.581,2.725H30.885Zm-2.425-9.384.836-.827.827.827v3.37H30.068Zm0,5.032.836-.827.827.827v3.1a6.359,6.359,0,0,0-1.662,0Zm-.754,4.351,1.581,2.725H27.733ZM26.725,15.07l.836-.827.836.827V18.7a5.723,5.723,0,0,0-1.671,1.19ZM26.143,24.9l1.581-2.725L29.3,24.9Zm1.59,2.725L29.314,24.9l1.581,2.725Zm1.59-2.725L30.9,22.174,32.475,24.9ZM30.9,27.624,32.484,24.9l1.581,2.725Z" fill="#fff" fill-rule="evenodd"/>
</svg>
