<svg id="instagram" xmlns="http://www.w3.org/2000/svg" width="20.768" height="20.768" viewBox="0 0 20.768 20.768">
  <path id="Path_1" data-name="Path 1" d="M210.975,208.988A1.988,1.988,0,1,1,208.988,207,1.988,1.988,0,0,1,210.975,208.988Zm0,0" transform="translate(-198.604 -198.604)" fill="#fff"/>
  <path id="Path_2" data-name="Path 2" d="M145.021,136.86a1.974,1.974,0,0,0-1.132-1.132,3.3,3.3,0,0,0-1.107-.205c-.629-.029-.817-.035-2.409-.035s-1.781.006-2.41.035a3.3,3.3,0,0,0-1.107.205,1.976,1.976,0,0,0-1.132,1.132,3.3,3.3,0,0,0-.205,1.107c-.029.629-.035.817-.035,2.409s.006,1.781.035,2.409a3.3,3.3,0,0,0,.205,1.107,1.974,1.974,0,0,0,1.132,1.132,3.294,3.294,0,0,0,1.107.205c.629.029.817.035,2.409.035s1.781-.006,2.41-.035a3.294,3.294,0,0,0,1.107-.205,1.974,1.974,0,0,0,1.132-1.132,3.3,3.3,0,0,0,.205-1.107c.029-.629.035-.817.035-2.409s-.006-1.781-.035-2.409A3.3,3.3,0,0,0,145.021,136.86Zm-4.648,6.578a3.062,3.062,0,1,1,3.062-3.062A3.062,3.062,0,0,1,140.373,143.438Zm3.183-5.529a.716.716,0,1,1,.716-.716A.716.716,0,0,1,143.556,137.909Zm0,0" transform="translate(-129.988 -129.992)" fill="#fff"/>
  <path id="Path_3" data-name="Path 3" d="M10.384,0A10.384,10.384,0,1,0,20.768,10.384,10.385,10.385,0,0,0,10.384,0ZM16.31,12.842a4.375,4.375,0,0,1-.277,1.447,3.049,3.049,0,0,1-1.744,1.744,4.378,4.378,0,0,1-1.447.277c-.636.029-.839.036-2.458.036s-1.822-.007-2.458-.036a4.378,4.378,0,0,1-1.447-.277,3.049,3.049,0,0,1-1.744-1.744,4.374,4.374,0,0,1-.277-1.447c-.029-.636-.036-.839-.036-2.458s.007-1.822.036-2.458a4.375,4.375,0,0,1,.277-1.447A3.051,3.051,0,0,1,6.478,4.734a4.379,4.379,0,0,1,1.447-.277c.636-.029.839-.036,2.458-.036s1.822.007,2.458.036a4.38,4.38,0,0,1,1.447.277,3.05,3.05,0,0,1,1.744,1.744,4.374,4.374,0,0,1,.277,1.447c.029.636.036.839.036,2.458S16.34,12.206,16.31,12.842Zm0,0" fill="#fff"/>
</svg>
