<svg id="linkedin" xmlns="http://www.w3.org/2000/svg" width="21.418" height="21.418" viewBox="0 0 21.418 21.418">
  <path id="linkedin-2" data-name="linkedin" d="M10.709,0A10.709,10.709,0,1,0,21.418,10.709,10.71,10.71,0,0,0,10.709,0ZM7.6,16.189H4.989V8.342H7.6Zm-1.3-8.918H6.276A1.359,1.359,0,1,1,6.31,4.56a1.36,1.36,0,1,1-.017,2.711ZM17,16.189H14.394v-4.2c0-1.055-.378-1.774-1.321-1.774a1.428,1.428,0,0,0-1.338.954,1.786,1.786,0,0,0-.086.636v4.382H9.04s.034-7.11,0-7.847h2.608V9.453A2.589,2.589,0,0,1,14,8.158c1.716,0,3,1.121,3,3.532Zm0,0" fill="#fff"/>
</svg>
