<svg id="search-black" xmlns="http://www.w3.org/2000/svg" width="30.136" height="30.136" viewBox="0 0 30.136 30.136">
  <g id="Group_2" data-name="Group 2">
    <path id="Path_6" data-name="Path 6" d="M3.576,20.869A12.228,12.228,0,0,1,20.869,3.576a11.99,11.99,0,0,1,1.839,14.758.514.514,0,0,0,.071.613l6.239,6.239c1.242,1.242,1.537,2.978.436,4.079l-.19.189c-1.1,1.1-2.838.806-4.079-.436L18.96,22.792a.522.522,0,0,0-.626-.084A11.99,11.99,0,0,1,3.576,20.869Zm15.035-2.258a9.035,9.035,0,1,0-12.778,0A9.045,9.045,0,0,0,18.612,18.611Z" transform="translate(-0.001 0)"/>
    <g id="Group_1" data-name="Group 1" transform="translate(7.809 4.894)">
      <path id="Path_7" data-name="Path 7" d="M123.774,57.012a1.263,1.263,0,0,0,1.162-1.754,7.954,7.954,0,0,0-10.413-4.221,1.262,1.262,0,1,0,.984,2.325,5.427,5.427,0,0,1,7.1,2.88A1.263,1.263,0,0,0,123.774,57.012Z" transform="translate(-113.752 -50.409)"/>
    </g>
  </g>
</svg>
