<svg id="twitter" xmlns="http://www.w3.org/2000/svg" width="20.476" height="20.476" viewBox="0 0 20.476 20.476">
  <path id="twitter-2" data-name="twitter" d="M10.238,0A10.238,10.238,0,1,0,20.476,10.238,10.239,10.239,0,0,0,10.238,0Zm4.674,7.982q.007.151.007.3a6.64,6.64,0,0,1-6.686,6.686h0a6.651,6.651,0,0,1-3.6-1.056,4.78,4.78,0,0,0,.561.032A4.715,4.715,0,0,0,8.11,12.943a2.353,2.353,0,0,1-2.2-1.632,2.342,2.342,0,0,0,1.061-.04,2.35,2.35,0,0,1-1.885-2.3c0-.011,0-.02,0-.03a2.334,2.334,0,0,0,1.064.294,2.352,2.352,0,0,1-.728-3.137,6.672,6.672,0,0,0,4.844,2.455,2.351,2.351,0,0,1,4-2.143,4.713,4.713,0,0,0,1.492-.57,2.359,2.359,0,0,1-1.033,1.3,4.687,4.687,0,0,0,1.349-.37A4.776,4.776,0,0,1,14.912,7.982Zm0,0" fill="#fff"/>
</svg>
