<svg id="youtube" xmlns="http://www.w3.org/2000/svg" width="21.314" height="21.314" viewBox="0 0 21.314 21.314">
  <path id="Path_4" data-name="Path 4" d="M224.113,212.032l3.467-2-3.467-2Zm0,0" transform="translate(-214.783 -199.379)" fill="#fff"/>
  <path id="Path_5" data-name="Path 5" d="M10.657,0A10.657,10.657,0,1,0,21.314,10.657,10.658,10.658,0,0,0,10.657,0Zm6.659,10.668a17.589,17.589,0,0,1-.274,3.2,1.669,1.669,0,0,1-1.174,1.174,40.5,40.5,0,0,1-5.211.274,39.055,39.055,0,0,1-5.211-.285A1.669,1.669,0,0,1,4.272,13.86,17.512,17.512,0,0,1,4,10.657a17.577,17.577,0,0,1,.274-3.2A1.7,1.7,0,0,1,5.446,6.269a40.5,40.5,0,0,1,5.211-.274,38.972,38.972,0,0,1,5.211.285,1.669,1.669,0,0,1,1.174,1.174A16.691,16.691,0,0,1,17.316,10.668Zm0,0" fill="#fff"/>
</svg>
